{
  "accessors": [
    {
      "bufferView": 2,
      "componentType": 5126,
      "count": 65532,
      "max": [
        0.00287180976010859,
        0.004427881445735693,
        0.007260466460138559
      ],
      "min": [
        -0.0024049393832683563,
        -0.004427881445735693,
        -0.00270660687237978
      ],
      "type": "VEC3"
    },
    {
      "bufferView": 2,
      "byteOffset": 786384,
      "componentType": 5126,
      "count": 65532,
      "max": [
        1.0,
        1.0,
        1.0
      ],
      "min": [
        -1.0,
        -1.0,
        -1.0
      ],
      "type": "VEC3"
    },
    {
      "bufferView": 1,
      "componentType": 5126,
      "count": 65532,
      "max": [
        0.8750001192092896,
        1.0000001192092896
      ],
      "min": [
        0.125,
        0.0
      ],
      "type": "VEC2"
    },
    {
      "bufferView": 0,
      "componentType": 5125,
      "count": 378918,
      "type": "SCALAR"
    },
    {
      "bufferView": 2,
      "byteOffset": 1572768,
      "componentType": 5126,
      "count": 22370,
      "max": [
        0.002581540960818529,
        0.004427881445735693,
        0.007233880460262299
      ],
      "min": [
        -0.0023911611642688513,
        -0.004427881445735693,
        -0.012257609516382217
      ],
      "type": "VEC3"
    },
    {
      "bufferView": 2,
      "byteOffset": 1841208,
      "componentType": 5126,
      "count": 22370,
      "max": [
        1.0,
        1.0,
        1.0
      ],
      "min": [
        -1.0,
        -1.0,
        -1.0
      ],
      "type": "VEC3"
    },
    {
      "bufferView": 1,
      "byteOffset": 524256,
      "componentType": 5126,
      "count": 22370,
      "max": [
        0.8333333134651184,
        1.0000001192092896
      ],
      "min": [
        0.1666666567325592,
        0.0
      ],
      "type": "VEC2"
    },
    {
      "bufferView": 0,
      "byteOffset": 1515672,
      "componentType": 5125,
      "count": 124890,
      "type": "SCALAR"
    },
    {
      "bufferView": 2,
      "byteOffset": 2109648,
      "componentType": 5126,
      "count": 24879,
      "max": [
        0.012927312403917313,
        0.008598650805652142,
        0.06343614310026169
      ],
      "min": [
        -0.008598649874329567,
        -0.008598649874329567,
        0.0013033316936343908
      ],
      "type": "VEC3"
    },
    {
      "bufferView": 2,
      "byteOffset": 2408196,
      "componentType": 5126,
      "count": 24879,
      "max": [
        1.0,
        1.0,
        1.0
      ],
      "min": [
        -1.0,
        -1.0,
        -0.12171069532632828
      ],
      "type": "VEC3"
    },
    {
      "bufferView": 1,
      "byteOffset": 703216,
      "componentType": 5126,
      "count": 24879,
      "max": [
        0.8530233502388,
        0.9809987545013428
      ],
      "min": [
        0.17627418041229248,
        0.29963281750679016
      ],
      "type": "VEC2"
    },
    {
      "bufferView": 0,
      "byteOffset": 2015232,
      "componentType": 5125,
      "count": 141312,
      "type": "SCALAR"
    },
    {
      "bufferView": 2,
      "byteOffset": 2706744,
      "componentType": 5126,
      "count": 65532,
      "max": [
        0.008430151268839836,
        0.008287724107503891,
        0.0011785883689299226
      ],
      "min": [
        -0.008430151268839836,
        -0.008430151268839836,
        0.0
      ],
      "type": "VEC3"
    },
    {
      "bufferView": 2,
      "byteOffset": 3493128,
      "componentType": 5126,
      "count": 65532,
      "max": [
        1.0,
        1.0,
        -0.00013860016770195216
      ],
      "min": [
        -1.0,
        -1.0,
        -1.0
      ],
      "type": "VEC3"
    },
    {
      "bufferView": 1,
      "byteOffset": 902248,
      "componentType": 5126,
      "count": 65532,
      "max": [
        0.6187195181846619,
        0.23364359140396118
      ],
      "min": [
        0.4068135619163513,
        0.02163468673825264
      ],
      "type": "VEC2"
    },
    {
      "bufferView": 0,
      "byteOffset": 2580480,
      "componentType": 5125,
      "count": 377262,
      "type": "SCALAR"
    },
    {
      "bufferView": 2,
      "byteOffset": 4279512,
      "componentType": 5126,
      "count": 45636,
      "max": [
        0.008598648943006992,
        0.008598648011684418,
        0.0013033320428803563
      ],
      "min": [
        -0.008598648011684418,
        -0.008598648011684418,
        0.0
      ],
      "type": "VEC3"
    },
    {
      "bufferView": 2,
      "byteOffset": 4827144,
      "componentType": 5126,
      "count": 45636,
      "max": [
        1.0,
        1.0,
        -0.0002455050125718117
      ],
      "min": [
        -1.0,
        -1.0,
        -1.0
      ],
      "type": "VEC3"
    },
    {
      "bufferView": 1,
      "byteOffset": 1426504,
      "componentType": 5126,
      "count": 45636,
      "max": [
        0.8088979125022888,
        0.3038991093635559
      ],
      "min": [
        0.22026517987251282,
        0.023693712428212166
      ],
      "type": "VEC2"
    },
    {
      "bufferView": 0,
      "byteOffset": 4089528,
      "componentType": 5125,
      "count": 261714,
      "type": "SCALAR"
    },
    {
      "bufferView": 2,
      "byteOffset": 5374776,
      "componentType": 5126,
      "count": 25100,
      "max": [
        0.0011445172131061554,
        0.0011445172131061554,
        0.0013360821176320314
      ],
      "min": [
        -0.0011445172131061554,
        -0.0011445172131061554,
        0.00028619440854527056
      ],
      "type": "VEC3"
    },
    {
      "bufferView": 2,
      "byteOffset": 5675976,
      "componentType": 5126,
      "count": 25100,
      "max": [
        1.0,
        1.0,
        5.261942987999646e-07
      ],
      "min": [
        -1.0,
        -1.0,
        -1.0
      ],
      "type": "VEC3"
    },
    {
      "bufferView": 1,
      "byteOffset": 1791592,
      "componentType": 5126,
      "count": 25100,
      "max": [
        0.5276947021484375,
        0.14243140816688538
      ],
      "min": [
        0.4978843033313751,
        0.11259806156158447
      ],
      "type": "VEC2"
    },
    {
      "bufferView": 0,
      "byteOffset": 5136384,
      "componentType": 5125,
      "count": 147456,
      "type": "SCALAR"
    },
    {
      "bufferView": 2,
      "byteOffset": 5977176,
      "componentType": 5126,
      "count": 6450,
      "max": [
        0.0022606998682022095,
        0.0076840720139443874,
        0.0132759353145957
      ],
      "min": [
        -0.012983848340809345,
        -0.0076840720139443874,
        -0.005559256300330162
      ],
      "type": "VEC3"
    },
    {
      "bufferView": 2,
      "byteOffset": 6054576,
      "componentType": 5126,
      "count": 6450,
      "max": [
        1.0,
        1.0,
        1.0
      ],
      "min": [
        -1.0,
        -1.0,
        -1.0
      ],
      "type": "VEC3"
    },
    {
      "bufferView": 1,
      "byteOffset": 1992392,
      "componentType": 5126,
      "count": 6450,
      "max": [
        0.8750001192092896,
        0.6250001192092896
      ],
      "min": [
        0.1249999850988388,
        0.125
      ],
      "type": "VEC2"
    },
    {
      "bufferView": 0,
      "byteOffset": 5726208,
      "componentType": 5125,
      "count": 36096,
      "type": "SCALAR"
    },
    {
      "bufferView": 2,
      "byteOffset": 6131976,
      "componentType": 5126,
      "count": 2442,
      "max": [
        -0.008675665594637394,
        0.0017045747954398394,
        0.00784900039434433
      ],
      "min": [
        -0.01207941398024559,
        -0.0017045745626091957,
        0.005317293107509613
      ],
      "type": "VEC3"
    },
    {
      "bufferView": 2,
      "byteOffset": 6161280,
      "componentType": 5126,
      "count": 2442,
      "max": [
        0.9999995827674866,
        0.9999995827674866,
        1.0
      ],
      "min": [
        -0.999999463558197,
        -0.9999995827674866,
        0.0007330387015827
      ],
      "type": "VEC3"
    },
    {
      "bufferView": 1,
      "byteOffset": 2043992,
      "componentType": 5126,
      "count": 2442,
      "max": [
        0.5000001192092896,
        0.16393674910068512
      ],
      "min": [
        0.4999999701976776,
        0.125
      ],
      "type": "VEC2"
    },
    {
      "bufferView": 0,
      "byteOffset": 5870592,
      "componentType": 5125,
      "count": 13824,
      "type": "SCALAR"
    },
    {
      "bufferView": 2,
      "byteOffset": 6190584,
      "componentType": 5126,
      "count": 4416,
      "max": [
        0.0026531601324677467,
        0.001467572059482336,
        0.0026533445343375206
      ],
      "min": [
        -0.002653170842677355,
        -0.001467246562242508,
        -0.0026529873721301556
      ],
      "type": "VEC3"
    },
    {
      "bufferView": 2,
      "byteOffset": 6243576,
      "componentType": 5126,
      "count": 4416,
      "max": [
        0.9998570680618286,
        1.0,
        0.9998570084571838
      ],
      "min": [
        -0.9998570680618286,
        -1.0,
        -0.9998570680618286
      ],
      "type": "VEC3"
    },
    {
      "bufferView": 1,
      "byteOffset": 2063528,
      "componentType": 5126,
      "count": 4416,
      "max": [
        1.0,
        1.0
      ],
      "min": [
        -7.469207048416138e-07,
        0.010102654807269573
      ],
      "type": "VEC2"
    },
    {
      "bufferView": 0,
      "byteOffset": 5925888,
      "componentType": 5125,
      "count": 6900,
      "type": "SCALAR"
    },
    {
      "bufferView": 2,
      "byteOffset": 6296568,
      "componentType": 5126,
      "count": 41298,
      "max": [
        0.007004408165812492,
        0.008630044758319855,
        0.07276257872581482
      ],
      "min": [
        -0.008598648943006992,
        -0.00863004568964243,
        0.056925006210803986
      ],
      "type": "VEC3"
    },
    {
      "bufferView": 2,
      "byteOffset": 6792144,
      "componentType": 5126,
      "count": 41298,
      "max": [
        1.0,
        1.0,
        0.9999291300773621
      ],
      "min": [
        -1.0,
        -1.0,
        -0.9999305605888367
      ],
      "type": "VEC3"
    },
    {
      "bufferView": 1,
      "byteOffset": 2098856,
      "componentType": 5126,
      "count": 41298,
      "max": [
        0.0,
        0.0
      ],
      "min": [
        0.0,
        0.0
      ],
      "type": "VEC2"
    },
    {
      "bufferView": 0,
      "byteOffset": 5953488,
      "componentType": 5125,
      "count": 247776,
      "type": "SCALAR"
    },
    {
      "bufferView": 2,
      "byteOffset": 7287720,
      "componentType": 5126,
      "count": 10626,
      "max": [
        0.012980710715055466,
        0.004750934429466724,
        0.06700120866298676
      ],
      "min": [
        0.007046948652714491,
        -0.004750934429466724,
        0.062036991119384766
      ],
      "type": "VEC3"
    },
    {
      "bufferView": 2,
      "byteOffset": 7415232,
      "componentType": 5126,
      "count": 10626,
      "max": [
        1.0,
        0.9999999403953552,
        0.9999999403953552
      ],
      "min": [
        -1.0,
        -0.9999999403953552,
        -1.0
      ],
      "type": "VEC3"
    },
    {
      "bufferView": 1,
      "byteOffset": 2429240,
      "componentType": 5126,
      "count": 10626,
      "max": [
        0.0,
        0.0
      ],
      "min": [
        0.0,
        0.0
      ],
      "type": "VEC2"
    },
    {
      "bufferView": 0,
      "byteOffset": 6944592,
      "componentType": 5125,
      "count": 63744,
      "type": "SCALAR"
    },
    {
      "bufferView": 2,
      "byteOffset": 7542744,
      "componentType": 5126,
      "count": 6000,
      "max": [
        0.003278077580034733,
        0.0031147231347858906,
        0.003153732046484947
      ],
      "min": [
        -0.0027153119444847107,
        -0.0031205210834741592,
        -0.0031537313479930162
      ],
      "type": "VEC3"
    },
    {
      "bufferView": 2,
      "byteOffset": 7614744,
      "componentType": 5126,
      "count": 6000,
      "max": [
        0.9999959468841553,
        0.9998834133148193,
        1.0
      ],
      "min": [
        -0.9999958872795105,
        -0.9997795224189758,
        -1.0
      ],
      "type": "VEC3"
    },
    {
      "bufferView": 1,
      "byteOffset": 2514248,
      "componentType": 5126,
      "count": 6000,
      "max": [
        1.0000001192092896,
        1.0000001192092896
      ],
      "min": [
        -7.450581307466564e-08,
        0.0
      ],
      "type": "VEC2"
    },
    {
      "bufferView": 0,
      "byteOffset": 7199568,
      "componentType": 5125,
      "count": 32640,
      "type": "SCALAR"
    }
  ],
  "asset": {
    "extras": {
      "author": "stanleyshnek (https://sketchfab.com/stanleyshnek)",
      "license": "CC-BY-4.0 (http://creativecommons.org/licenses/by/4.0/)",
      "source": "https://sketchfab.com/3d-models/clipper-lighter-8b0da44abfd14febaed415c8faa13e82",
      "title": "Clipper lighter"
    },
    "generator": "Sketchfab-16.59.0",
    "version": "2.0"
  },
  "bufferViews": [
    {
      "buffer": 0,
      "byteLength": 7330128,
      "name": "floatBufferViews",
      "target": 34963
    },
    {
      "buffer": 0,
      "byteLength": 2562248,
      "byteOffset": 7330128,
      "byteStride": 8,
      "name": "floatBufferViews",
      "target": 34962
    },
    {
      "buffer": 0,
      "byteLength": 7686744,
      "byteOffset": 9892376,
      "byteStride": 12,
      "name": "floatBufferViews",
      "target": 34962
    }
  ],
  "buffers": [
    {
      "byteLength": 17579120,
      "uri": "scene.bin"
    }
  ],
  "materials": [
    {
      "doubleSided": true,
      "name": "plasticBlack",
      "pbrMetallicRoughness": {
        "baseColorFactor": [
          0.00523872,
          0.00523872,
          0.00523872,
          1.0
        ],
        "metallicFactor": 0.0,
        "roughnessFactor": 0.0013660120052692187
      }
    },
    {
      "doubleSided": true,
      "name": "base",
      "pbrMetallicRoughness": {
        "baseColorFactor": [
          0.8004739999999999,
          0.2913079999999998,
          0.01867520000000001,
          1.0
        ],
        "metallicFactor": 0.0,
        "roughnessFactor": 0.11280937318496911
      }
    },
    {
      "doubleSided": true,
      "name": "plasticRed",
      "pbrMetallicRoughness": {
        "baseColorFactor": [
          0.43368799999999974,
          0.0019597500000000027,
          0.0,
          1.0
        ],
        "metallicFactor": 0.0,
        "roughnessFactor": 0.982886865978389
      }
    },
    {
      "doubleSided": true,
      "name": "metalDark",
      "pbrMetallicRoughness": {
        "baseColorFactor": [
          0.155159,
          0.155159,
          0.155159,
          1.0
        ],
        "roughnessFactor": 0.041635817250109466
      }
    },
    {
      "doubleSided": true,
      "name": "flint",
      "pbrMetallicRoughness": {
        "baseColorFactor": [
          0.00244821,
          0.00244821,
          0.00244821,
          1.0
        ],
        "metallicFactor": 0.0,
        "roughnessFactor": 0.9996497053350865
      }
    },
    {
      "doubleSided": true,
      "name": "metal",
      "pbrMetallicRoughness": {
        "baseColorFactor": [
          0.8,
          0.8,
          0.8,
          1.0
        ],
        "roughnessFactor": 0.23746691905601539
      }
    }
  ],
  "meshes": [
    {
      "name": "Cube_plasticBlack_0",
      "primitives": [
        {
          "attributes": {
            "NORMAL": 1,
            "POSITION": 0,
            "TEXCOORD_0": 2
          },
          "indices": 3,
          "material": 0,
          "mode": 4
        }
      ]
    },
    {
      "name": "Cube_plasticBlack_0",
      "primitives": [
        {
          "attributes": {
            "NORMAL": 5,
            "POSITION": 4,
            "TEXCOORD_0": 6
          },
          "indices": 7,
          "material": 0,
          "mode": 4
        }
      ]
    },
    {
      "name": "base_base_0",
      "primitives": [
        {
          "attributes": {
            "NORMAL": 9,
            "POSITION": 8,
            "TEXCOORD_0": 10
          },
          "indices": 11,
          "material": 1,
          "mode": 4
        }
      ]
    },
    {
      "name": "base_plasticBlack_0",
      "primitives": [
        {
          "attributes": {
            "NORMAL": 13,
            "POSITION": 12,
            "TEXCOORD_0": 14
          },
          "indices": 15,
          "material": 0,
          "mode": 4
        }
      ]
    },
    {
      "name": "base_plasticBlack_0",
      "primitives": [
        {
          "attributes": {
            "NORMAL": 17,
            "POSITION": 16,
            "TEXCOORD_0": 18
          },
          "indices": 19,
          "material": 0,
          "mode": 4
        }
      ]
    },
    {
      "name": "base_plasticRed_0",
      "primitives": [
        {
          "attributes": {
            "NORMAL": 21,
            "POSITION": 20,
            "TEXCOORD_0": 22
          },
          "indices": 23,
          "material": 2,
          "mode": 4
        }
      ]
    },
    {
      "name": "Cube.001_plasticBlack_0",
      "primitives": [
        {
          "attributes": {
            "NORMAL": 25,
            "POSITION": 24,
            "TEXCOORD_0": 26
          },
          "indices": 27,
          "material": 0,
          "mode": 4
        }
      ]
    },
    {
      "name": "Cube.001_metalDark_0",
      "primitives": [
        {
          "attributes": {
            "NORMAL": 29,
            "POSITION": 28,
            "TEXCOORD_0": 30
          },
          "indices": 31,
          "material": 3,
          "mode": 4
        }
      ]
    },
    {
      "name": "flint_flint_0",
      "primitives": [
        {
          "attributes": {
            "NORMAL": 33,
            "POSITION": 32,
            "TEXCOORD_0": 34
          },
          "indices": 35,
          "material": 4,
          "mode": 4
        }
      ]
    },
    {
      "name": "metalCover_metal_0",
      "primitives": [
        {
          "attributes": {
            "NORMAL": 37,
            "POSITION": 36,
            "TEXCOORD_0": 38
          },
          "indices": 39,
          "material": 5,
          "mode": 4
        }
      ]
    },
    {
      "name": "push_plasticBlack_0",
      "primitives": [
        {
          "attributes": {
            "NORMAL": 41,
            "POSITION": 40,
            "TEXCOORD_0": 42
          },
          "indices": 43,
          "material": 0,
          "mode": 4
        }
      ]
    },
    {
      "name": "rotor_metal_0",
      "primitives": [
        {
          "attributes": {
            "NORMAL": 45,
            "POSITION": 44,
            "TEXCOORD_0": 46
          },
          "indices": 47,
          "material": 5,
          "mode": 4
        }
      ]
    }
  ],
  "nodes": [
    {
      "children": [
        1
      ],
      "matrix": [
        1.0,
        0.0,
        0.0,
        0.0,
        0.0,
        2.220446049250313e-16,
        -1.0,
        0.0,
        0.0,
        1.0,
        2.220446049250313e-16,
        0.0,
        0.0,
        0.0,
        0.0,
        1.0
      ],
      "name": "Sketchfab_model"
    },
    {
      "children": [
        2
      ],
      "matrix": [
        0.009999999776482582,
        0.0,
        0.0,
        0.0,
        0.0,
        0.0,
        0.009999999776482582,
        0.0,
        0.0,
        -0.009999999776482582,
        0.0,
        0.0,
        0.0,
        0.0,
        0.0,
        1.0
      ],
      "name": "01229f22042c4695856b63e38fe7f36f.fbx"
    },
    {
      "children": [
        3,
        6,
        14,
        16,
        18,
        20
      ],
      "name": "RootNode"
    },
    {
      "children": [
        4,
        5
      ],
      "matrix": [
        100.0,
        0.0,
        0.0,
        0.0,
        0.0,
        -1.629206793918314e-05,
        -99.99999999999868,
        0.0,
        0.0,
        99.99999999999868,
        -1.629206793918314e-05,
        0.0,
        0.4819851815700531,
        6.828364849090576,
        0.0,
        1.0
      ],
      "name": "Cube"
    },
    {
      "mesh": 0,
      "name": "Cube_plasticBlack_0"
    },
    {
      "mesh": 1,
      "name": "Cube_plasticBlack_0"
    },
    {
      "children": [
        7,
        8,
        9,
        10,
        11
      ],
      "matrix": [
        100.0,
        0.0,
        0.0,
        0.0,
        0.0,
        -1.629206793918314e-05,
        -99.99999999999868,
        0.0,
        0.0,
        99.99999999999868,
        -1.629206793918314e-05,
        0.0,
        0.0,
        0.0,
        0.0,
        1.0
      ],
      "name": "base"
    },
    {
      "mesh": 2,
      "name": "base_base_0"
    },
    {
      "mesh": 3,
      "name": "base_plasticBlack_0"
    },
    {
      "mesh": 4,
      "name": "base_plasticBlack_0"
    },
    {
      "mesh": 5,
      "name": "base_plasticRed_0"
    },
    {
      "children": [
        12,
        13
      ],
      "matrix": [
        1.0,
        0.0,
        0.0,
        0.0,
        0.0,
        1.0,
        -2.646977960169688e-23,
        0.0,
        0.0,
        2.646977960169688e-23,
        1.0,
        0.0,
        0.005025852005928755,
        1.6543612251060553e-24,
        0.06152394413948059,
        1.0
      ],
      "name": "Cube.001"
    },
    {
      "mesh": 6,
      "name": "Cube.001_plasticBlack_0"
    },
    {
      "mesh": 7,
      "name": "Cube.001_metalDark_0"
    },
    {
      "children": [
        15
      ],
      "matrix": [
        100.0,
        0.0,
        0.0,
        0.0,
        0.0,
        -1.629206793918314e-05,
        -99.99999999999868,
        0.0,
        0.0,
        99.99999999999868,
        -1.629206793918314e-05,
        0.0,
        0.4819851815700531,
        7.365527153015137,
        0.0,
        1.0
      ],
      "name": "flint"
    },
    {
      "mesh": 8,
      "name": "flint_flint_0"
    },
    {
      "children": [
        17
      ],
      "matrix": [
        100.0,
        0.0,
        0.0,
        0.0,
        0.0,
        -1.629206793918314e-05,
        -99.99999999999868,
        0.0,
        0.0,
        99.99999999999868,
        -1.629206793918314e-05,
        0.0,
        0.0,
        0.27849042415618896,
        0.0,
        1.0
      ],
      "name": "metalCover"
    },
    {
      "mesh": 9,
      "name": "metalCover_metal_0"
    },
    {
      "children": [
        19
      ],
      "matrix": [
        100.0,
        0.0,
        0.0,
        0.0,
        0.0,
        -1.629206793918314e-05,
        -99.99999999999868,
        0.0,
        0.0,
        99.99999999999868,
        -1.629206793918314e-05,
        0.0,
        0.0,
        0.0,
        0.0,
        1.0
      ],
      "name": "push"
    },
    {
      "mesh": 10,
      "name": "push_plasticBlack_0"
    },
    {
      "children": [
        21
      ],
      "matrix": [
        100.0,
        0.0,
        0.0,
        0.0,
        0.0,
        99.99999999999972,
        -7.5497901264043296e-06,
        0.0,
        0.0,
        7.5497901264043296e-06,
        99.99999999999972,
        0.0,
        0.4819851815700531,
        7.365527153015137,
        0.0,
        1.0
      ],
      "name": "rotor"
    },
    {
      "mesh": 11,
      "name": "rotor_metal_0"
    }
  ],
  "scene": 0,
  "scenes": [
    {
      "name": "Sketchfab_Scene",
      "nodes": [
        0
      ]
    }
  ]
}
